<svg width="75" height="79" viewBox="0 0 75 79" fill="none" xmlns="http://www.w3.org/2000/svg">
<path d="M74.7804 24.6881C74.7804 29.0737 73.0382 33.2797 69.9371 36.3808C66.836 39.4819 62.6301 41.2241 58.2445 41.2241H12.7706C10.9415 41.2378 9.13202 40.8467 7.47183 40.0789C5.81163 39.3111 4.34183 38.1856 3.16775 36.783C1.99368 35.3803 1.14439 33.7354 0.68076 31.966C0.217129 30.1966 0.150633 28.3465 0.486036 26.5484C0.821439 24.7502 1.55044 23.0486 2.62079 21.5653C3.69114 20.082 5.07634 18.8538 6.67712 17.9688C8.27791 17.0838 10.0546 16.5638 11.88 16.4462C13.7054 16.3285 15.5341 16.6161 17.2353 17.2883C17.9042 13.2546 19.7544 9.50996 22.5519 6.52797C25.3493 3.54599 28.9684 1.46066 32.9511 0.535766C36.9339 -0.389125 41.1015 -0.112023 44.9268 1.33202C48.7521 2.77606 52.0632 5.32217 54.4412 8.64827C55.686 8.33883 56.962 8.1724 58.2445 8.15219C62.6301 8.15219 66.836 9.89436 69.9371 12.9955C73.0382 16.0965 74.7804 20.3025 74.7804 24.6881ZM66.5124 74.296V57.76C66.5124 56.6636 66.0769 55.6121 65.3016 54.8369C64.5263 54.0616 63.4748 53.626 62.3784 53.626C61.282 53.626 60.2305 54.0616 59.4553 54.8369C58.68 55.6121 58.2445 56.6636 58.2445 57.76V74.296C58.2445 75.3924 58.68 76.4439 59.4553 77.2192C60.2305 77.9944 61.282 78.43 62.3784 78.43C63.4748 78.43 64.5263 77.9944 65.3016 77.2192C66.0769 76.4439 66.5124 75.3924 66.5124 74.296ZM33.4405 74.296V57.76C33.4405 56.6636 33.005 55.6121 32.2297 54.8369C31.4544 54.0616 30.4029 53.626 29.3065 53.626C28.2101 53.626 27.1586 54.0616 26.3834 54.8369C25.6081 55.6121 25.1726 56.6636 25.1726 57.76V74.296C25.1726 75.3924 25.6081 76.4439 26.3834 77.2192C27.1586 77.9944 28.2101 78.43 29.3065 78.43C30.4029 78.43 31.4544 77.9944 32.2297 77.2192C33.005 76.4439 33.4405 75.3924 33.4405 74.296ZM49.9765 66.028V57.76C49.9765 56.6636 49.5409 55.6121 48.7657 54.8369C47.9904 54.0616 46.9389 53.626 45.8425 53.626C44.7461 53.626 43.6946 54.0616 42.9193 54.8369C42.1441 55.6121 41.7085 56.6636 41.7085 57.76V66.028C41.7085 67.1244 42.1441 68.1759 42.9193 68.9512C43.6946 69.7265 44.7461 70.162 45.8425 70.162C46.9389 70.162 47.9904 69.7265 48.7657 68.9512C49.5409 68.1759 49.9765 67.1244 49.9765 66.028ZM16.9046 66.028V57.76C16.9046 56.6636 16.469 55.6121 15.6938 54.8369C14.9185 54.0616 13.867 53.626 12.7706 53.626C11.6742 53.626 10.6227 54.0616 9.84742 54.8369C9.07215 55.6121 8.6366 56.6636 8.6366 57.76V66.028C8.6366 67.1244 9.07215 68.1759 9.84742 68.9512C10.6227 69.7265 11.6742 70.162 12.7706 70.162C13.867 70.162 14.9185 69.7265 15.6938 68.9512C16.469 68.1759 16.9046 67.1244 16.9046 66.028Z" fill="white"/>
</svg>
