<svg width="45" height="30" viewBox="0 0 45 30" fill="none" xmlns="http://www.w3.org/2000/svg">
<path d="M44.2501 8.99992H41.2501C40.9501 8.99992 40.6501 9.22492 40.5751 9.52489L38.4751 15.7499H36.4501L34.4251 12.3749C34.2751 12.1499 34.0501 11.9999 33.7501 11.9999H30.7501V9.74989C30.7501 9.29989 30.4502 8.99992 30.0002 8.99992H24.75V5.99995H27C27.45 5.99995 27.75 5.69998 27.75 5.24998V0.749971C27.75 0.299971 27.45 0 27 0H13.5C13.05 0 12.75 0.299971 12.75 0.749971V5.24998C12.75 5.69998 13.05 5.99995 13.5 5.99995H15.75V8.99992H9.74998C9.52498 8.99992 9.37495 9.07489 9.22501 9.22492C9.07507 9.37495 9.00001 9.52489 9.00001 9.74989V11.9999H3.75003C3.30003 11.9999 3.00006 12.2999 3.00006 12.7499V17.2499H1.50003V15C1.50003 14.55 1.20006 14.25 0.750059 14.25C0.300059 14.25 0 14.55 0 15V21C0 21.45 0.299971 21.75 0.749971 21.75C1.19997 21.75 1.49994 21.45 1.49994 21V18.75H2.99997V24.75C2.99997 25.2 3.29994 25.5 3.74994 25.5H9.37495L12.1499 29.7C12.3 29.8501 12.525 30 12.75 30H33.75C34.05 30 34.275 29.85 34.425 29.55L36.45 25.5H38.55L40.575 29.55C40.725 29.85 40.95 30 41.25 30H44.25C44.7 30 45 29.7 45 29.25V9.74998C45 9.29998 44.7001 8.99992 44.2501 8.99992ZM14.25 1.49994H26.25V4.49992H24H16.5H14.25V1.49994ZM17.25 5.99995H23.2501V8.99992H17.25V5.99995ZM4.5 24V13.4999H9.00001V24H4.5ZM33.2251 28.5H13.125L10.5 24.527V12.75V10.5H16.5H24H29.25V12.75C29.25 13.2 29.55 13.4999 30 13.4999H33.3L35.2501 16.7499V24.45L33.2251 28.5ZM36.75 24V17.25H38.25V24H36.75ZM43.5 28.5H41.7L39.75 24.7392V16.5026L41.775 10.5H43.5V28.5Z" fill="#DF0209"/>
</svg>
