<svg width="37" height="30" viewBox="0 0 37 30" fill="none" xmlns="http://www.w3.org/2000/svg">
<path fill-rule="evenodd" clip-rule="evenodd" d="M35.0002 6.6667H1.66625V5.00005H9.99952V1.66665H26.6661V5.00005H34.9993L35.0002 6.6667ZM33.3357 25.0006L3.33315 24.9964L3.33057 8.33395H33.3356L33.3334 8.33783L33.3357 25.0006ZM34.9959 28.3339L1.66617 28.3356L1.67004 26.6673H34.9957L34.9999 26.6656L34.9959 28.3339ZM3.33348 3.33331H5.00014V1.66665H3.33348V3.33331ZM31.6671 3.33331H33.3338V1.66665H31.6671V3.33331ZM36.6671 7.49663V4.1697C36.6671 3.70901 36.2937 3.33331 35.8323 3.33331H35.0004V0.836388C35.0004 0.375701 34.6257 0 34.1634 0H30.8374C30.3761 0 30.0004 0.374427 30.0004 0.836388V3.33331H28.3337V0.836388C28.3337 0.375701 27.9603 0 27.4999 0H9.16685C8.70617 0 8.33336 0.374427 8.33336 0.836388V3.33331H6.66671V0.836388C6.66671 0.375701 6.29196 0 5.82933 0H2.50371C2.04238 0 1.66666 0.374427 1.66666 0.836388V3.33331H0.834492C0.37445 3.33331 7.57179e-06 3.70774 7.57179e-06 4.1697V7.49663C7.57179e-06 7.95732 0.373144 8.33335 0.834492 8.33335H1.66666V24.9958C1.66666 24.9974 1.66699 24.9987 1.66699 25.0003C0.746902 25.0022 0 25.7466 0 26.665V28.3349C0 29.2511 0.747894 30 1.67054 30H34.9962C35.9179 30 36.6671 29.2544 36.6671 28.3349V26.665C36.6671 25.7498 35.8336 25.0023 35.0004 25.0003V8.33705C35.0004 8.33608 34.9998 8.33414 34.9998 8.33317H35.8323C36.2923 8.33317 36.6671 7.95842 36.6671 7.49646L36.6671 7.49663Z" fill="#DF0209"/>
<path fill-rule="evenodd" clip-rule="evenodd" d="M9.16338 11.667H5.83743C5.3761 11.667 5.00038 12.0401 5.00038 12.5002C5.00038 12.9634 5.37481 13.3336 5.83743 13.3336H9.16338C9.62407 13.3336 10.0004 12.9602 10.0004 12.5002C10.0004 12.0369 9.62535 11.667 9.16338 11.667Z" fill="#DF0209"/>
<path fill-rule="evenodd" clip-rule="evenodd" d="M30.8302 11.667H30.0006V10.8374C30.0006 10.3761 29.6272 10.0003 29.1671 10.0003C28.7035 10.0003 28.334 10.3748 28.334 10.8374V11.667H27.5043C27.043 11.667 26.6673 12.0401 26.6673 12.5002C26.6673 12.9634 27.0417 13.3336 27.5043 13.3336H28.334V14.1633C28.334 14.6243 28.7068 15.0003 29.1671 15.0003C29.6307 15.0003 30.0006 14.6256 30.0006 14.1633V13.3336H30.8302C31.2909 13.3336 31.6673 12.9602 31.6673 12.5002C31.6673 12.0369 31.2922 11.667 30.8302 11.667Z" fill="#DF0209"/>
</svg>
