<svg width="26" height="30" viewBox="0 0 26 30" fill="none" xmlns="http://www.w3.org/2000/svg">
<path fill-rule="evenodd" clip-rule="evenodd" d="M7.19382 22.7028V15.7383H8.59999V18.831L11.441 15.7383H13.3321L10.7095 18.4511L13.4745 22.7028H11.6549L9.74027 19.4345L8.59992 20.5983V22.7027L7.19382 22.7028ZM14.1224 23.0357L15.6474 23.2209C15.6728 23.3981 15.7313 23.52 15.8231 23.5867C15.9498 23.6817 16.1493 23.7291 16.4217 23.7291C16.7703 23.7291 17.0316 23.6769 17.2057 23.5725C17.3228 23.5028 17.4115 23.3902 17.4718 23.2351C17.5129 23.1241 17.5334 22.9198 17.5334 22.6223V21.8857C17.1345 22.4306 16.6308 22.7028 16.0228 22.7028C15.3447 22.7028 14.8079 22.4164 14.412 21.8431C14.1018 21.3902 13.9464 20.8265 13.9464 20.1517C13.9464 19.3059 14.15 18.6599 14.5571 18.2132C14.9639 17.7666 15.4699 17.5433 16.0749 17.5433C16.6986 17.5433 17.2134 17.8173 17.619 18.3654V17.6574H18.8682V22.1849C18.8682 22.7806 18.8194 23.2254 18.721 23.5199C18.6229 23.8147 18.485 24.0458 18.3076 24.2136C18.1304 24.3814 17.8936 24.513 17.5975 24.608C17.3012 24.7031 16.9267 24.7504 16.4738 24.7504C15.6187 24.7504 15.0121 24.6041 14.6542 24.3111C14.2963 24.0181 14.1174 23.6466 14.1174 23.197C14.1174 23.1526 14.1189 23.0986 14.1222 23.0356L14.1224 23.0357ZM15.315 20.0758C15.315 20.6111 15.4185 21.0031 15.6261 21.2517C15.8334 21.5004 16.0893 21.6247 16.3934 21.6247C16.7196 21.6247 16.9951 21.4971 17.2199 21.2421C17.4447 20.9871 17.5573 20.6096 17.5573 20.109C17.5573 19.5864 17.4496 19.1986 17.2341 18.9452C17.019 18.6917 16.7465 18.5649 16.417 18.5649C16.0971 18.5649 15.8334 18.6893 15.6261 18.9379C15.4185 19.1866 15.315 19.5658 15.315 20.0758ZM12.6007 9.72978C10.8094 9.72978 9.35742 8.27772 9.35742 6.48655C9.35742 4.69537 10.8095 3.24331 12.6007 3.24331C14.3918 3.24331 15.8439 4.69537 15.8439 6.48655C15.8439 8.27772 14.3918 9.72978 12.6007 9.72978ZM12.6007 8.10816C13.4963 8.10816 14.2223 7.38214 14.2223 6.48655C14.2223 5.59095 13.4963 4.86493 12.6007 4.86493C11.7051 4.86493 10.979 5.59095 10.979 6.48655C10.979 7.38214 11.7051 8.10816 12.6007 8.10816ZM6.5858 8.91897C6.2768 8.15583 6.11415 7.33297 6.11415 6.48655C6.11415 2.90411 9.01826 0 12.6007 0C16.1828 0 19.0869 2.90411 19.0869 6.48655C19.0869 7.33297 18.9243 8.15582 18.6153 8.91897H19.3902C20.5423 8.91897 21.5362 9.72738 21.7713 10.8553L25.1497 27.0715C25.4237 28.3868 24.5797 29.675 23.2647 29.949C23.1014 29.9831 22.9352 30 22.7683 30H2.43243C1.08898 30 0 28.9109 0 27.5676C0 27.401 0.0172012 27.2347 0.0509978 27.0715L3.42942 10.8553C3.66449 9.72733 4.65845 8.91899 5.81086 8.91899L6.5858 8.91897ZM8.60725 9.26569C8.98204 9.80341 8.5976 10.5406 7.94218 10.5406H5.81119C5.42705 10.5406 5.09573 10.8101 5.01729 11.1861L1.63887 27.4022C1.62771 27.4569 1.62198 27.5121 1.62198 27.5676C1.62198 28.0154 1.98499 28.3784 2.43278 28.3784H22.7687C22.8245 28.3784 22.8797 28.3727 22.934 28.3615C23.3725 28.2701 23.654 27.8407 23.5626 27.4022L20.1842 11.1861C20.106 10.8101 19.7744 10.5406 19.3906 10.5406H17.2593C16.6038 10.5406 16.2194 9.80341 16.5942 9.26568C17.1588 8.45664 17.466 7.49559 17.466 6.48648C17.466 3.79967 15.2879 1.62155 12.601 1.62155C9.91414 1.62155 7.73609 3.79959 7.73609 6.48648C7.73609 7.49551 8.04298 8.45664 8.60754 9.26568L8.60725 9.26569Z" fill="#DF0209"/>
</svg>
