<svg width="78" height="78" viewBox="0 0 78 78" fill="none" xmlns="http://www.w3.org/2000/svg">
<path d="M67.4355 32.1288C68.6213 35.3897 66.2063 38.8375 62.7365 38.8375H15.2635C11.7937 38.8375 9.37875 35.3897 10.5645 32.1288L19.2782 8.16628C19.9967 6.19033 21.8746 4.875 23.9771 4.875H54.0229C56.1254 4.875 58.0033 6.19034 58.7218 8.16629L67.4355 32.1288Z" stroke="white" stroke-width="4.75" stroke-miterlimit="10"/>
<path d="M17.095 14.1375H31.135H46.865H60.8725" stroke="white" stroke-width="4.75" stroke-miterlimit="10"/>
<path d="M12.61 26.4875H28.8925H49.1075H65.39" stroke="white" stroke-width="4.75" stroke-miterlimit="10"/>
<path d="M32.825 4.875L26.65 38.8375" stroke="white" stroke-width="4.75" stroke-miterlimit="10"/>
<path d="M45.175 4.875L51.35 38.8375" stroke="white" stroke-width="4.75" stroke-miterlimit="10"/>
<path d="M39 51.1875L32.825 60.45H39V51.1875Z" stroke="white" stroke-width="4.75" stroke-miterlimit="10"/>
<path d="M39 66.625L45.175 57.3625H39V66.625Z" stroke="white" stroke-width="4.75" stroke-miterlimit="10"/>
</svg>
