<svg width="89" height="78" viewBox="0 0 89 78" fill="none" xmlns="http://www.w3.org/2000/svg">
<path d="M26.4556 42.6557L30.5006 44.8758C31.1591 44.8758 31.504 44.618 31.504 44.1167C31.4557 43.6421 31.2952 43.1827 31.0337 42.7703L22.2537 27.7162L2.82802 28.1459C2.64712 28.1319 2.46509 28.155 2.29514 28.2133C2.1252 28.2716 1.9716 28.3638 1.8455 28.4831C1.7194 28.6024 1.62396 28.7459 1.5661 28.9031C1.50825 29.0603 1.48944 29.2273 1.51103 29.392C1.51103 29.5782 1.79324 29.8217 2.34199 30.1512L6.37137 32.3713L2.02842 38.4302C1.03243 39.6943 0.421101 41.177 0.256744 42.7273C0.315454 43.947 0.720706 45.1317 1.43263 46.1649L14.6496 67.2206C14.3472 65.9789 14.1895 64.7113 14.1793 63.4392C14.2155 61.1757 14.9847 58.9727 16.3899 57.1082L26.4712 42.6557H26.4556Z" fill="white"/>
<path d="M31.5511 30.409L42.4477 14.9395C38.3712 6.45994 34.044 2.22016 29.4658 2.22016C26.7064 2.22016 24.8564 2.92201 23.9 4.32573L13.5835 19.3798L31.5511 30.409Z" fill="white"/>
<path d="M43.6863 72.1623V52.1809H23.4296C21.7232 54.2969 20.1527 56.5017 18.726 58.784C17.7231 60.5206 17.1858 62.4499 17.1582 64.4132C17.1582 69.5793 18.9769 72.1623 22.6143 72.1623H43.6863Z" fill="white"/>
<path d="M65.9811 26.6849L75.3882 12.3613C75.6925 11.8824 75.8546 11.3393 75.8586 10.7857C75.8586 10.1411 75.6234 9.81166 75.1531 9.81166C74.8512 9.9587 74.5297 10.0694 74.1967 10.1411L69.8851 11.7883L65.9811 4.75543C64.2774 1.58514 60.8124 0 55.5863 0H31.1905C33.3423 0.484702 35.385 1.30873 37.2267 2.43501C39.7248 4.23978 42.2752 7.6297 44.8778 12.6048L49.7382 21.9151L46.1791 23.4907C46.0016 23.5673 45.8547 23.6927 45.7591 23.8494C45.6635 24.0061 45.624 24.1862 45.6461 24.3644C45.6461 24.8944 46.0224 25.2095 46.7749 25.2811L66.0438 26.7135L65.9811 26.6849Z" fill="white"/>
<path d="M75.3412 69.183L88.9658 46.5517C87.2308 48.4732 84.9617 49.9327 82.3965 50.7771C79.7534 51.4423 77.015 51.7369 74.2751 51.6509H59.0983V48.7862C59.0983 47.6689 58.8004 47.1103 58.2046 47.1103C58.0198 47.097 57.8346 47.13 57.6689 47.2057C57.5031 47.2814 57.3631 47.397 57.2639 47.54L47.747 62.7373L57.7029 76.7172C58.4554 77.7628 59.0983 78.1495 59.647 77.949C60.1958 77.7485 60.478 77.5479 60.478 77.1469V72.3771H68.8973C70.2062 72.4782 71.5191 72.2303 72.6768 71.6633C73.8344 71.0964 74.7872 70.2348 75.4196 69.183H75.3412Z" fill="white"/>
<path d="M69.4147 48.7718H78.4769C80.9927 48.6471 83.3822 47.7253 85.2344 46.1649C87.7325 44.3602 88.9763 42.4504 88.9658 40.4355C88.941 39.4432 88.5915 38.4803 87.9624 37.6711L77.1756 22.6313L58.6279 32.4859L69.4147 48.7718Z" fill="white"/>
</svg>
